<?xml version="1.0" encoding="UTF-8"?>
<svg xmlns="http://www.w3.org/2000/svg" viewBox="0 0 480 200" width="480" height="200" role="img" aria-label="Top Languages">
  <defs>
    <style>
      .m { font-family: ui-monospace, 'SF Mono', Menlo, Consolas, 'Courier New', monospace; font-weight: 700; }
    </style>
  </defs>
  <rect width="480" height="200" fill="#1A1A1A"/>

  <text class="m" x="20" y="32" font-size="13" letter-spacing="4" fill="#FFFDF5">/// TOP LANGUAGES</text>
  <line x1="20" y1="46" x2="460" y2="46" stroke="#FFFDF5" stroke-opacity="0.15" stroke-width="1"/>

  <text class="m" x="20"  y="64" font-size="11" letter-spacing="2" fill="#FFFDF5">TYPESCRIPT</text>
  <text class="m" x="460" y="64" font-size="11" letter-spacing="2" fill="#CCFF00" text-anchor="end">47.8%</text>
  <rect x="20" y="70" width="440" height="6" fill="#FFFDF5" fill-opacity="0.12"/>
  <rect x="20" y="70" width="210" height="6" fill="#CCFF00"/>
  <text class="m" x="20"  y="94" font-size="11" letter-spacing="2" fill="#FFFDF5">SWIFT</text>
  <text class="m" x="460" y="94" font-size="11" letter-spacing="2" fill="#CCFF00" text-anchor="end">17.4%</text>
  <rect x="20" y="100" width="440" height="6" fill="#FFFDF5" fill-opacity="0.12"/>
  <rect x="20" y="100" width="76" height="6" fill="#CCFF00"/>
  <text class="m" x="20"  y="124" font-size="11" letter-spacing="2" fill="#FFFDF5">JAVASCRIPT</text>
  <text class="m" x="460" y="124" font-size="11" letter-spacing="2" fill="#CCFF00" text-anchor="end">17.4%</text>
  <rect x="20" y="130" width="440" height="6" fill="#FFFDF5" fill-opacity="0.12"/>
  <rect x="20" y="130" width="76" height="6" fill="#CCFF00"/>
  <text class="m" x="20"  y="154" font-size="11" letter-spacing="2" fill="#FFFDF5">PYTHON</text>
  <text class="m" x="460" y="154" font-size="11" letter-spacing="2" fill="#CCFF00" text-anchor="end">8.7%</text>
  <rect x="20" y="160" width="440" height="6" fill="#FFFDF5" fill-opacity="0.12"/>
  <rect x="20" y="160" width="38" height="6" fill="#CCFF00"/>
  <text class="m" x="20"  y="184" font-size="11" letter-spacing="2" fill="#FFFDF5">CSS</text>
  <text class="m" x="460" y="184" font-size="11" letter-spacing="2" fill="#CCFF00" text-anchor="end">8.7%</text>
  <rect x="20" y="190" width="440" height="6" fill="#FFFDF5" fill-opacity="0.12"/>
  <rect x="20" y="190" width="38" height="6" fill="#CCFF00"/>
</svg>
